<svg width="30" height="30" viewBox="0 0 30 30" fill="none" xmlns="http://www.w3.org/2000/svg">
<g id="icons8_whatsapp 1" filter="url(#filter0_i_316_58)">
<path id="Vector" d="M15.0902 3.25684C8.55544 3.25684 3.25726 8.55501 3.25726 15.0897C3.25726 17.3096 3.8808 19.3792 4.94437 21.1545L3.36319 26.9226L9.2546 25.3761C10.9776 26.3557 12.9666 26.9226 15.0902 26.9226C21.6249 26.9226 26.923 21.6244 26.923 15.0897C26.923 8.55501 21.6249 3.25684 15.0902 3.25684ZM11.0399 9.57002C11.2322 9.57002 11.4298 9.56885 11.6004 9.57773C11.8114 9.58266 12.0411 9.59811 12.261 10.0842C12.5223 10.6621 13.0913 12.1117 13.1642 12.2586C13.2372 12.4055 13.2889 12.5786 13.1873 12.7709C13.0907 12.9681 13.0404 13.0875 12.8984 13.262C12.7515 13.4316 12.5905 13.6423 12.4574 13.7705C12.3105 13.9174 12.1588 14.0785 12.3284 14.3714C12.498 14.6642 13.087 15.6243 13.9577 16.3994C15.0769 17.3992 16.0212 17.7065 16.315 17.8534C16.6089 18.0004 16.7791 17.9775 16.9487 17.7802C17.1232 17.588 17.6817 16.9282 17.8789 16.6343C18.0712 16.3405 18.2675 16.3913 18.5337 16.4879C18.8039 16.5846 20.2447 17.2944 20.5386 17.4413C20.8324 17.5882 21.0251 17.6609 21.099 17.7802C21.175 17.9035 21.175 18.4903 20.9315 19.1746C20.6879 19.858 19.4919 20.5188 18.9555 20.5651C18.4141 20.6154 17.9089 20.8085 15.4368 19.8352C12.4549 18.6608 10.5744 15.6066 10.4275 15.4094C10.2806 15.2171 9.23341 13.8215 9.23341 12.3819C9.23341 10.9373 9.99082 10.2298 10.2561 9.93595C10.5263 9.6421 10.8427 9.57002 11.0399 9.57002Z" fill="#485B7C"/>
</g>
<defs>
<filter id="filter0_i_316_58" x="0.299011" y="0.298828" width="29.5822" height="33.582" filterUnits="userSpaceOnUse" color-interpolation-filters="sRGB">
<feFlood flood-opacity="0" result="BackgroundImageFix"/>
<feBlend mode="normal" in="SourceGraphic" in2="BackgroundImageFix" result="shape"/>
<feColorMatrix in="SourceAlpha" type="matrix" values="0 0 0 0 0 0 0 0 0 0 0 0 0 0 0 0 0 0 127 0" result="hardAlpha"/>
<feOffset dy="4"/>
<feGaussianBlur stdDeviation="7.5"/>
<feComposite in2="hardAlpha" operator="arithmetic" k2="-1" k3="1"/>
<feColorMatrix type="matrix" values="0 0 0 0 0 0 0 0 0 0 0 0 0 0 0 0 0 0 0.2 0"/>
<feBlend mode="normal" in2="shape" result="effect1_innerShadow_316_58"/>
</filter>
</defs>
</svg>
