<svg width="34" height="34" viewBox="0 0 34 34" fill="none" xmlns="http://www.w3.org/2000/svg">
<g id="icons8_telegram_app 1">
<g id="Vector" filter="url(#filter0_i_316_9)">
<path d="M31.142 16.9806C31.142 24.544 24.9359 30.6761 17.2815 30.6761C9.62705 30.6761 3.42102 24.544 3.42102 16.9806C3.42102 9.4173 9.62705 3.28516 17.2815 3.28516C24.9359 3.28516 31.142 9.4173 31.142 16.9806Z" fill="#485B7C"/>
</g>
<g id="Vector_2" filter="url(#filter1_i_316_9)">
<path d="M8.65543 16.7865C13.4997 14.6808 19.7681 12.1136 20.6337 11.7582C22.9033 10.8283 23.5998 11.0063 23.2526 13.0661C23.0031 14.5466 22.2837 19.4475 21.7099 22.4982C21.3696 24.3074 20.6059 24.5217 19.4056 23.739C18.8283 23.3624 15.9142 21.458 15.2814 21.0109C14.7041 20.6034 13.9079 20.1131 14.9065 19.1476C15.262 18.8038 17.5913 16.6057 19.4063 14.8951C19.644 14.6705 19.3453 14.3015 19.0709 14.4815C16.6245 16.0846 13.2329 18.3094 12.8011 18.5991C12.149 19.0367 11.5225 19.2373 10.3984 18.9182C9.54874 18.6772 8.71919 18.3896 8.39624 18.28C7.15226 17.8582 7.44749 17.3117 8.65543 16.7865Z" fill="#EBE9E9"/>
</g>
</g>
<defs>
<filter id="filter0_i_316_9" x="3.42102" y="3.28516" width="27.7209" height="31.3911" filterUnits="userSpaceOnUse" color-interpolation-filters="sRGB">
<feFlood flood-opacity="0" result="BackgroundImageFix"/>
<feBlend mode="normal" in="SourceGraphic" in2="BackgroundImageFix" result="shape"/>
<feColorMatrix in="SourceAlpha" type="matrix" values="0 0 0 0 0 0 0 0 0 0 0 0 0 0 0 0 0 0 127 0" result="hardAlpha"/>
<feOffset dy="4"/>
<feGaussianBlur stdDeviation="7.5"/>
<feComposite in2="hardAlpha" operator="arithmetic" k2="-1" k3="1"/>
<feColorMatrix type="matrix" values="0 0 0 0 0 0 0 0 0 0 0 0 0 0 0 0 0 0 0.2 0"/>
<feBlend mode="normal" in2="shape" result="effect1_innerShadow_316_9"/>
</filter>
<filter id="filter1_i_316_9" x="7.59473" y="11.2202" width="15.7422" height="16.9487" filterUnits="userSpaceOnUse" color-interpolation-filters="sRGB">
<feFlood flood-opacity="0" result="BackgroundImageFix"/>
<feBlend mode="normal" in="SourceGraphic" in2="BackgroundImageFix" result="shape"/>
<feColorMatrix in="SourceAlpha" type="matrix" values="0 0 0 0 0 0 0 0 0 0 0 0 0 0 0 0 0 0 127 0" result="hardAlpha"/>
<feOffset dy="4"/>
<feGaussianBlur stdDeviation="4"/>
<feComposite in2="hardAlpha" operator="arithmetic" k2="-1" k3="1"/>
<feColorMatrix type="matrix" values="0 0 0 0 0 0 0 0 0 0 0 0 0 0 0 0 0 0 0.2 0"/>
<feBlend mode="normal" in2="shape" result="effect1_innerShadow_316_9"/>
</filter>
</defs>
</svg>
